<?xml version="1.0" standalone="no"?>
<svg xmlns:xlink="http://www.w3.org/1999/xlink" id="wave" style="transform:rotate(0deg); transition: 0.3s" viewBox="0 0 1440 330" version="1.1" xmlns="http://www.w3.org/2000/svg"><defs><linearGradient id="sw-gradient-0" x1="0" x2="0" y1="1" y2="0"><stop stop-color="rgba(186, 197, 244, 1)" offset="0%"/><stop stop-color="rgba(186, 197, 244, 1)" offset="100%"/></linearGradient></defs><path style="transform:translate(0, 0px); opacity:1" fill="url(#sw-gradient-0)" d="M0,33L80,71.5C160,110,320,187,480,187C640,187,800,110,960,71.5C1120,33,1280,33,1440,55C1600,77,1760,121,1920,159.5C2080,198,2240,231,2400,220C2560,209,2720,154,2880,137.5C3040,121,3200,143,3360,126.5C3520,110,3680,55,3840,38.5C4000,22,4160,44,4320,77C4480,110,4640,154,4800,143C4960,132,5120,66,5280,82.5C5440,99,5600,198,5760,214.5C5920,231,6080,165,6240,132C6400,99,6560,99,6720,88C6880,77,7040,55,7200,77C7360,99,7520,165,7680,159.5C7840,154,8000,77,8160,55C8320,33,8480,66,8640,115.5C8800,165,8960,231,9120,242C9280,253,9440,209,9600,198C9760,187,9920,209,10080,203.5C10240,198,10400,165,10560,176C10720,187,10880,242,11040,264C11200,286,11360,275,11440,269.5L11520,264L11520,330L11440,330C11360,330,11200,330,11040,330C10880,330,10720,330,10560,330C10400,330,10240,330,10080,330C9920,330,9760,330,9600,330C9440,330,9280,330,9120,330C8960,330,8800,330,8640,330C8480,330,8320,330,8160,330C8000,330,7840,330,7680,330C7520,330,7360,330,7200,330C7040,330,6880,330,6720,330C6560,330,6400,330,6240,330C6080,330,5920,330,5760,330C5600,330,5440,330,5280,330C5120,330,4960,330,4800,330C4640,330,4480,330,4320,330C4160,330,4000,330,3840,330C3680,330,3520,330,3360,330C3200,330,3040,330,2880,330C2720,330,2560,330,2400,330C2240,330,2080,330,1920,330C1760,330,1600,330,1440,330C1280,330,1120,330,960,330C800,330,640,330,480,330C320,330,160,330,80,330L0,330Z"/><defs><linearGradient id="sw-gradient-1" x1="0" x2="0" y1="1" y2="0"><stop stop-color="rgba(225, 230, 251, 1)" offset="0%"/><stop stop-color="rgba(225, 230, 251, 1)" offset="100%"/></linearGradient></defs><path style="transform:translate(0, 50px); opacity:0.9" fill="url(#sw-gradient-1)" d="M0,132L80,115.5C160,99,320,66,480,82.5C640,99,800,165,960,181.5C1120,198,1280,165,1440,165C1600,165,1760,198,1920,187C2080,176,2240,121,2400,115.5C2560,110,2720,154,2880,176C3040,198,3200,198,3360,198C3520,198,3680,198,3840,209C4000,220,4160,242,4320,258.5C4480,275,4640,286,4800,253C4960,220,5120,143,5280,93.5C5440,44,5600,22,5760,55C5920,88,6080,176,6240,187C6400,198,6560,132,6720,132C6880,132,7040,198,7200,192.5C7360,187,7520,110,7680,110C7840,110,8000,187,8160,209C8320,231,8480,198,8640,192.5C8800,187,8960,209,9120,203.5C9280,198,9440,165,9600,154C9760,143,9920,154,10080,159.5C10240,165,10400,165,10560,176C10720,187,10880,209,11040,220C11200,231,11360,231,11440,231L11520,231L11520,330L11440,330C11360,330,11200,330,11040,330C10880,330,10720,330,10560,330C10400,330,10240,330,10080,330C9920,330,9760,330,9600,330C9440,330,9280,330,9120,330C8960,330,8800,330,8640,330C8480,330,8320,330,8160,330C8000,330,7840,330,7680,330C7520,330,7360,330,7200,330C7040,330,6880,330,6720,330C6560,330,6400,330,6240,330C6080,330,5920,330,5760,330C5600,330,5440,330,5280,330C5120,330,4960,330,4800,330C4640,330,4480,330,4320,330C4160,330,4000,330,3840,330C3680,330,3520,330,3360,330C3200,330,3040,330,2880,330C2720,330,2560,330,2400,330C2240,330,2080,330,1920,330C1760,330,1600,330,1440,330C1280,330,1120,330,960,330C800,330,640,330,480,330C320,330,160,330,80,330L0,330Z"/></svg>